<?xml version="1.0" encoding="utf-8"?>
<!-- Generator: Adobe Illustrator 21.0.2, SVG Export Plug-In . SVG Version: 6.00 Build 0)  -->
<!DOCTYPE svg PUBLIC "-//W3C//DTD SVG 1.1//EN" "http://www.w3.org/Graphics/SVG/1.1/DTD/svg11.dtd">
<svg version="1.1" id="Layer_1" xmlns="http://www.w3.org/2000/svg" xmlns:xlink="http://www.w3.org/1999/xlink" x="0px" y="0px"
	 viewBox="0 0 708.7 77" style="enable-background:new 0 0 708.7 77;" xml:space="preserve">
<style type="text/css">
	.st0{fill:#010101;}
	.st1{fill:url(#SVGID_1_);}
	.st2{fill:url(#SVGID_2_);}
	.st3{fill:#FFFFFF;}
</style>
<path class="st0" d="M316.4,0c-6.1,8.1-9.7,18.1-9.7,29c0,26.5,21.5,48,48,48s48-21.5,48-48c0-10.9-3.6-20.9-9.7-29H316.4z"/>
<linearGradient id="SVGID_1_" gradientUnits="userSpaceOnUse" x1="0" y1="20.9662" x2="356" y2="20.9662">
	<stop  offset="0" style="stop-color:#679CD3"/>
	<stop  offset="0.7541" style="stop-color:#242426"/>
	<stop  offset="1" style="stop-color:#000000"/>
</linearGradient>
<polygon class="st1" points="356,0 0,0 26.4,41.9 356,41.9 "/>
<linearGradient id="SVGID_2_" gradientUnits="userSpaceOnUse" x1="352.6619" y1="20.9662" x2="708.6619" y2="20.9662">
	<stop  offset="0.2216" style="stop-color:#000000"/>
	<stop  offset="1" style="stop-color:#F05455"/>
</linearGradient>
<polygon class="st2" points="352.7,0 708.7,0 682.2,41.9 352.7,41.9 "/>
<g>
	<g>
		<path class="st3" d="M356,39.5c-9.3,0-16.9-7.5-16.9-16.8l-23.6,0l0,5c0,0.9,0.7,1.8,1.6,2l9.8,1.8c0.6,2,1.4,3.8,2.3,5.6
			l-5.6,8.2c-0.5,0.8-0.4,1.9,0.2,2.6l7,7c0.7,0.7,1.8,0.8,2.6,0.2l8.2-5.6c1.8,0.9,3.6,1.7,5.6,2.3l1.8,9.8c0.2,0.9,1.1,1.6,2,1.6
			l9.9,0c0.9,0,1.8-0.7,2-1.6l1.8-9.8c2-0.6,3.9-1.4,5.7-2.4l8.1,5.6c0.8,0.5,1.9,0.4,2.6-0.2l7-7c0.7-0.7,0.8-1.8,0.2-2.6l-5.6-8.1
			c0.9-1.7,1.7-3.6,2.3-5.5l9.8-1.8c0.9-0.2,1.6-1.1,1.6-2l0-5l-23.6,0C372.9,32,365.3,39.5,356,39.5z"/>
	</g>
	<circle class="st3" cx="356" cy="22.5" r="8.6"/>
</g>
</svg>
